<?xml version="1.0" encoding="utf-8" standalone="no"?>
<!DOCTYPE svg PUBLIC "-//W3C//DTD SVG 1.1//EN"
  "http://www.w3.org/Graphics/SVG/1.1/DTD/svg11.dtd">
<svg xmlns:xlink="http://www.w3.org/1999/xlink" width="1152pt" height="576pt" viewBox="0 0 1152 576" xmlns="http://www.w3.org/2000/svg" version="1.1">
 <metadata>
  <rdf:RDF xmlns:dc="http://purl.org/dc/elements/1.1/" xmlns:cc="http://creativecommons.org/ns#" xmlns:rdf="http://www.w3.org/1999/02/22-rdf-syntax-ns#">
   <cc:Work>
    <dc:type rdf:resource="http://purl.org/dc/dcmitype/StillImage"/>
    <dc:date>2025-11-15T21:43:43.266239</dc:date>
    <dc:format>image/svg+xml</dc:format>
    <dc:creator>
     <cc:Agent>
      <dc:title>Matplotlib v3.9.4, https://matplotlib.org/</dc:title>
     </cc:Agent>
    </dc:creator>
   </cc:Work>
  </rdf:RDF>
 </metadata>
 <defs>
  <style type="text/css">*{stroke-linejoin: round; stroke-linecap: butt}</style>
 </defs>
 <g id="figure_1">
  <g id="patch_1">
   <path d="M 0 576 
L 1152 576 
L 1152 0 
L 0 0 
z
" style="fill: #ffffff"/>
  </g>
  <g id="axes_1">
   <g id="patch_2">
    <path d="M 47.54 531.16 
L 1139.857699 531.16 
L 1139.857699 315.754468 
L 47.54 315.754468 
z
" style="fill: #ffffff"/>
   </g>
   <g id="patch_3">
    <path d="M 194.062188 429.537402 
L 993.335511 498.212902 
L 550.06474 348.701566 
z
" clip-path="url(#pa91be49e44)" style="fill: #ffff00; opacity: 0.2; stroke: #ffff00; stroke-linejoin: miter"/>
   </g>
   <g id="PathCollection_1">
    <defs>
     <path id="m9b39acf89c" d="M 0 3 
C 0.795609 3 1.55874 2.683901 2.12132 2.12132 
C 2.683901 1.55874 3 0.795609 3 0 
C 3 -0.795609 2.683901 -1.55874 2.12132 -2.12132 
C 1.55874 -2.683901 0.795609 -3 0 -3 
C -0.795609 -3 -1.55874 -2.683901 -2.12132 -2.12132 
C -2.683901 -1.55874 -3 -0.795609 -3 0 
C -3 0.795609 -2.683901 1.55874 -2.12132 2.12132 
C -1.55874 2.683901 -0.795609 3 0 3 
z
" style="stroke: #000000"/>
    </defs>
    <g clip-path="url(#pa91be49e44)">
     <use xlink:href="#m9b39acf89c" x="194.062188" y="429.537402" style="stroke: #000000"/>
    </g>
   </g>
   <g id="PathCollection_2">
    <g clip-path="url(#pa91be49e44)">
     <use xlink:href="#m9b39acf89c" x="550.06474" y="348.701566" style="stroke: #000000"/>
    </g>
   </g>
   <g id="PathCollection_3">
    <g clip-path="url(#pa91be49e44)">
     <use xlink:href="#m9b39acf89c" x="993.335511" y="498.212902" style="stroke: #000000"/>
    </g>
   </g>
   <g id="matplotlib.axis_1">
    <g id="xtick_1">
     <g id="line2d_1">
      <path d="M 108.026655 531.16 
L 108.026655 315.754468 
" clip-path="url(#pa91be49e44)" style="fill: none; stroke-dasharray: 1.85,0.8; stroke-dashoffset: 0; stroke: #808080; stroke-width: 0.5"/>
     </g>
     <g id="line2d_2">
      <defs>
       <path id="mb3fbca90f9" d="M 0 0 
L 0 3.5 
" style="stroke: #000000; stroke-width: 0.8"/>
      </defs>
      <g>
       <use xlink:href="#mb3fbca90f9" x="108.026655" y="531.16" style="stroke: #000000; stroke-width: 0.8"/>
      </g>
     </g>
     <g id="text_1">
      <!-- 4 -->
      <g transform="translate(104.845405 545.758438) scale(0.1 -0.1)">
       <defs>
        <path id="DejaVuSans-34" d="M 2419 4116 
L 825 1625 
L 2419 1625 
L 2419 4116 
z
M 2253 4666 
L 3047 4666 
L 3047 1625 
L 3713 1625 
L 3713 1100 
L 3047 1100 
L 3047 0 
L 2419 0 
L 2419 1100 
L 313 1100 
L 313 1709 
L 2253 4666 
z
" transform="scale(0.015625)"/>
       </defs>
       <use xlink:href="#DejaVuSans-34"/>
      </g>
     </g>
    </g>
    <g id="xtick_2">
     <g id="line2d_3">
      <path d="M 254.548843 531.16 
L 254.548843 315.754468 
" clip-path="url(#pa91be49e44)" style="fill: none; stroke-dasharray: 1.85,0.8; stroke-dashoffset: 0; stroke: #808080; stroke-width: 0.5"/>
     </g>
     <g id="line2d_4">
      <g>
       <use xlink:href="#mb3fbca90f9" x="254.548843" y="531.16" style="stroke: #000000; stroke-width: 0.8"/>
      </g>
     </g>
     <g id="text_2">
      <!-- 6 -->
      <g transform="translate(251.367593 545.758438) scale(0.1 -0.1)">
       <defs>
        <path id="DejaVuSans-36" d="M 2113 2584 
Q 1688 2584 1439 2293 
Q 1191 2003 1191 1497 
Q 1191 994 1439 701 
Q 1688 409 2113 409 
Q 2538 409 2786 701 
Q 3034 994 3034 1497 
Q 3034 2003 2786 2293 
Q 2538 2584 2113 2584 
z
M 3366 4563 
L 3366 3988 
Q 3128 4100 2886 4159 
Q 2644 4219 2406 4219 
Q 1781 4219 1451 3797 
Q 1122 3375 1075 2522 
Q 1259 2794 1537 2939 
Q 1816 3084 2150 3084 
Q 2853 3084 3261 2657 
Q 3669 2231 3669 1497 
Q 3669 778 3244 343 
Q 2819 -91 2113 -91 
Q 1303 -91 875 529 
Q 447 1150 447 2328 
Q 447 3434 972 4092 
Q 1497 4750 2381 4750 
Q 2619 4750 2861 4703 
Q 3103 4656 3366 4563 
z
" transform="scale(0.015625)"/>
       </defs>
       <use xlink:href="#DejaVuSans-36"/>
      </g>
     </g>
    </g>
    <g id="xtick_3">
     <g id="line2d_5">
      <path d="M 401.071031 531.16 
L 401.071031 315.754468 
" clip-path="url(#pa91be49e44)" style="fill: none; stroke-dasharray: 1.85,0.8; stroke-dashoffset: 0; stroke: #808080; stroke-width: 0.5"/>
     </g>
     <g id="line2d_6">
      <g>
       <use xlink:href="#mb3fbca90f9" x="401.071031" y="531.16" style="stroke: #000000; stroke-width: 0.8"/>
      </g>
     </g>
     <g id="text_3">
      <!-- 8 -->
      <g transform="translate(397.889781 545.758438) scale(0.1 -0.1)">
       <defs>
        <path id="DejaVuSans-38" d="M 2034 2216 
Q 1584 2216 1326 1975 
Q 1069 1734 1069 1313 
Q 1069 891 1326 650 
Q 1584 409 2034 409 
Q 2484 409 2743 651 
Q 3003 894 3003 1313 
Q 3003 1734 2745 1975 
Q 2488 2216 2034 2216 
z
M 1403 2484 
Q 997 2584 770 2862 
Q 544 3141 544 3541 
Q 544 4100 942 4425 
Q 1341 4750 2034 4750 
Q 2731 4750 3128 4425 
Q 3525 4100 3525 3541 
Q 3525 3141 3298 2862 
Q 3072 2584 2669 2484 
Q 3125 2378 3379 2068 
Q 3634 1759 3634 1313 
Q 3634 634 3220 271 
Q 2806 -91 2034 -91 
Q 1263 -91 848 271 
Q 434 634 434 1313 
Q 434 1759 690 2068 
Q 947 2378 1403 2484 
z
M 1172 3481 
Q 1172 3119 1398 2916 
Q 1625 2713 2034 2713 
Q 2441 2713 2670 2916 
Q 2900 3119 2900 3481 
Q 2900 3844 2670 4047 
Q 2441 4250 2034 4250 
Q 1625 4250 1398 4047 
Q 1172 3844 1172 3481 
z
" transform="scale(0.015625)"/>
       </defs>
       <use xlink:href="#DejaVuSans-38"/>
      </g>
     </g>
    </g>
    <g id="xtick_4">
     <g id="line2d_7">
      <path d="M 547.593218 531.16 
L 547.593218 315.754468 
" clip-path="url(#pa91be49e44)" style="fill: none; stroke-dasharray: 1.85,0.8; stroke-dashoffset: 0; stroke: #808080; stroke-width: 0.5"/>
     </g>
     <g id="line2d_8">
      <g>
       <use xlink:href="#mb3fbca90f9" x="547.593218" y="531.16" style="stroke: #000000; stroke-width: 0.8"/>
      </g>
     </g>
     <g id="text_4">
      <!-- 10 -->
      <g transform="translate(541.230718 545.758438) scale(0.1 -0.1)">
       <defs>
        <path id="DejaVuSans-31" d="M 794 531 
L 1825 531 
L 1825 4091 
L 703 3866 
L 703 4441 
L 1819 4666 
L 2450 4666 
L 2450 531 
L 3481 531 
L 3481 0 
L 794 0 
L 794 531 
z
" transform="scale(0.015625)"/>
        <path id="DejaVuSans-30" d="M 2034 4250 
Q 1547 4250 1301 3770 
Q 1056 3291 1056 2328 
Q 1056 1369 1301 889 
Q 1547 409 2034 409 
Q 2525 409 2770 889 
Q 3016 1369 3016 2328 
Q 3016 3291 2770 3770 
Q 2525 4250 2034 4250 
z
M 2034 4750 
Q 2819 4750 3233 4129 
Q 3647 3509 3647 2328 
Q 3647 1150 3233 529 
Q 2819 -91 2034 -91 
Q 1250 -91 836 529 
Q 422 1150 422 2328 
Q 422 3509 836 4129 
Q 1250 4750 2034 4750 
z
" transform="scale(0.015625)"/>
       </defs>
       <use xlink:href="#DejaVuSans-31"/>
       <use xlink:href="#DejaVuSans-30" x="63.623047"/>
      </g>
     </g>
    </g>
    <g id="xtick_5">
     <g id="line2d_9">
      <path d="M 694.115406 531.16 
L 694.115406 315.754468 
" clip-path="url(#pa91be49e44)" style="fill: none; stroke-dasharray: 1.85,0.8; stroke-dashoffset: 0; stroke: #808080; stroke-width: 0.5"/>
     </g>
     <g id="line2d_10">
      <g>
       <use xlink:href="#mb3fbca90f9" x="694.115406" y="531.16" style="stroke: #000000; stroke-width: 0.8"/>
      </g>
     </g>
     <g id="text_5">
      <!-- 12 -->
      <g transform="translate(687.752906 545.758438) scale(0.1 -0.1)">
       <defs>
        <path id="DejaVuSans-32" d="M 1228 531 
L 3431 531 
L 3431 0 
L 469 0 
L 469 531 
Q 828 903 1448 1529 
Q 2069 2156 2228 2338 
Q 2531 2678 2651 2914 
Q 2772 3150 2772 3378 
Q 2772 3750 2511 3984 
Q 2250 4219 1831 4219 
Q 1534 4219 1204 4116 
Q 875 4013 500 3803 
L 500 4441 
Q 881 4594 1212 4672 
Q 1544 4750 1819 4750 
Q 2544 4750 2975 4387 
Q 3406 4025 3406 3419 
Q 3406 3131 3298 2873 
Q 3191 2616 2906 2266 
Q 2828 2175 2409 1742 
Q 1991 1309 1228 531 
z
" transform="scale(0.015625)"/>
       </defs>
       <use xlink:href="#DejaVuSans-31"/>
       <use xlink:href="#DejaVuSans-32" x="63.623047"/>
      </g>
     </g>
    </g>
    <g id="xtick_6">
     <g id="line2d_11">
      <path d="M 840.637594 531.16 
L 840.637594 315.754468 
" clip-path="url(#pa91be49e44)" style="fill: none; stroke-dasharray: 1.85,0.8; stroke-dashoffset: 0; stroke: #808080; stroke-width: 0.5"/>
     </g>
     <g id="line2d_12">
      <g>
       <use xlink:href="#mb3fbca90f9" x="840.637594" y="531.16" style="stroke: #000000; stroke-width: 0.8"/>
      </g>
     </g>
     <g id="text_6">
      <!-- 14 -->
      <g transform="translate(834.275094 545.758438) scale(0.1 -0.1)">
       <use xlink:href="#DejaVuSans-31"/>
       <use xlink:href="#DejaVuSans-34" x="63.623047"/>
      </g>
     </g>
    </g>
    <g id="xtick_7">
     <g id="line2d_13">
      <path d="M 987.159782 531.16 
L 987.159782 315.754468 
" clip-path="url(#pa91be49e44)" style="fill: none; stroke-dasharray: 1.85,0.8; stroke-dashoffset: 0; stroke: #808080; stroke-width: 0.5"/>
     </g>
     <g id="line2d_14">
      <g>
       <use xlink:href="#mb3fbca90f9" x="987.159782" y="531.16" style="stroke: #000000; stroke-width: 0.8"/>
      </g>
     </g>
     <g id="text_7">
      <!-- 16 -->
      <g transform="translate(980.797282 545.758438) scale(0.1 -0.1)">
       <use xlink:href="#DejaVuSans-31"/>
       <use xlink:href="#DejaVuSans-36" x="63.623047"/>
      </g>
     </g>
    </g>
    <g id="xtick_8">
     <g id="line2d_15">
      <path d="M 1133.68197 531.16 
L 1133.68197 315.754468 
" clip-path="url(#pa91be49e44)" style="fill: none; stroke-dasharray: 1.85,0.8; stroke-dashoffset: 0; stroke: #808080; stroke-width: 0.5"/>
     </g>
     <g id="line2d_16">
      <g>
       <use xlink:href="#mb3fbca90f9" x="1133.68197" y="531.16" style="stroke: #000000; stroke-width: 0.8"/>
      </g>
     </g>
     <g id="text_8">
      <!-- 18 -->
      <g transform="translate(1127.31947 545.758438) scale(0.1 -0.1)">
       <use xlink:href="#DejaVuSans-31"/>
       <use xlink:href="#DejaVuSans-38" x="63.623047"/>
      </g>
     </g>
    </g>
    <g id="text_9">
     <!-- $x_1$ -->
     <g transform="translate(587.278849 560.95625) scale(0.12 -0.12)">
      <defs>
       <path id="DejaVuSans-Oblique-78" d="M 3841 3500 
L 2234 1784 
L 3219 0 
L 2559 0 
L 1819 1388 
L 531 0 
L -166 0 
L 1556 1844 
L 641 3500 
L 1300 3500 
L 1972 2234 
L 3144 3500 
L 3841 3500 
z
" transform="scale(0.015625)"/>
      </defs>
      <use xlink:href="#DejaVuSans-Oblique-78" transform="translate(0 0.3125)"/>
      <use xlink:href="#DejaVuSans-31" transform="translate(59.179688 -16.09375) scale(0.7)"/>
     </g>
    </g>
   </g>
   <g id="matplotlib.axis_2">
    <g id="ytick_1">
     <g id="line2d_17">
      <path d="M 47.54 529.825779 
L 1139.857699 529.825779 
" clip-path="url(#pa91be49e44)" style="fill: none; stroke-dasharray: 1.85,0.8; stroke-dashoffset: 0; stroke: #808080; stroke-width: 0.5"/>
     </g>
     <g id="line2d_18">
      <defs>
       <path id="m57cd049555" d="M 0 0 
L -3.5 0 
" style="stroke: #000000; stroke-width: 0.8"/>
      </defs>
      <g>
       <use xlink:href="#m57cd049555" x="47.54" y="529.825779" style="stroke: #000000; stroke-width: 0.8"/>
      </g>
     </g>
     <g id="text_10">
      <!-- 6 -->
      <g transform="translate(34.1775 533.624997) scale(0.1 -0.1)">
       <use xlink:href="#DejaVuSans-36"/>
      </g>
     </g>
    </g>
    <g id="ytick_2">
     <g id="line2d_19">
      <path d="M 47.54 496.878681 
L 1139.857699 496.878681 
" clip-path="url(#pa91be49e44)" style="fill: none; stroke-dasharray: 1.85,0.8; stroke-dashoffset: 0; stroke: #808080; stroke-width: 0.5"/>
     </g>
     <g id="line2d_20">
      <g>
       <use xlink:href="#m57cd049555" x="47.54" y="496.878681" style="stroke: #000000; stroke-width: 0.8"/>
      </g>
     </g>
     <g id="text_11">
      <!-- 8 -->
      <g transform="translate(34.1775 500.6779) scale(0.1 -0.1)">
       <use xlink:href="#DejaVuSans-38"/>
      </g>
     </g>
    </g>
    <g id="ytick_3">
     <g id="line2d_21">
      <path d="M 47.54 463.931583 
L 1139.857699 463.931583 
" clip-path="url(#pa91be49e44)" style="fill: none; stroke-dasharray: 1.85,0.8; stroke-dashoffset: 0; stroke: #808080; stroke-width: 0.5"/>
     </g>
     <g id="line2d_22">
      <g>
       <use xlink:href="#m57cd049555" x="47.54" y="463.931583" style="stroke: #000000; stroke-width: 0.8"/>
      </g>
     </g>
     <g id="text_12">
      <!-- 10 -->
      <g transform="translate(27.815 467.730802) scale(0.1 -0.1)">
       <use xlink:href="#DejaVuSans-31"/>
       <use xlink:href="#DejaVuSans-30" x="63.623047"/>
      </g>
     </g>
    </g>
    <g id="ytick_4">
     <g id="line2d_23">
      <path d="M 47.54 430.984486 
L 1139.857699 430.984486 
" clip-path="url(#pa91be49e44)" style="fill: none; stroke-dasharray: 1.85,0.8; stroke-dashoffset: 0; stroke: #808080; stroke-width: 0.5"/>
     </g>
     <g id="line2d_24">
      <g>
       <use xlink:href="#m57cd049555" x="47.54" y="430.984486" style="stroke: #000000; stroke-width: 0.8"/>
      </g>
     </g>
     <g id="text_13">
      <!-- 12 -->
      <g transform="translate(27.815 434.783704) scale(0.1 -0.1)">
       <use xlink:href="#DejaVuSans-31"/>
       <use xlink:href="#DejaVuSans-32" x="63.623047"/>
      </g>
     </g>
    </g>
    <g id="ytick_5">
     <g id="line2d_25">
      <path d="M 47.54 398.037388 
L 1139.857699 398.037388 
" clip-path="url(#pa91be49e44)" style="fill: none; stroke-dasharray: 1.85,0.8; stroke-dashoffset: 0; stroke: #808080; stroke-width: 0.5"/>
     </g>
     <g id="line2d_26">
      <g>
       <use xlink:href="#m57cd049555" x="47.54" y="398.037388" style="stroke: #000000; stroke-width: 0.8"/>
      </g>
     </g>
     <g id="text_14">
      <!-- 14 -->
      <g transform="translate(27.815 401.836607) scale(0.1 -0.1)">
       <use xlink:href="#DejaVuSans-31"/>
       <use xlink:href="#DejaVuSans-34" x="63.623047"/>
      </g>
     </g>
    </g>
    <g id="ytick_6">
     <g id="line2d_27">
      <path d="M 47.54 365.09029 
L 1139.857699 365.09029 
" clip-path="url(#pa91be49e44)" style="fill: none; stroke-dasharray: 1.85,0.8; stroke-dashoffset: 0; stroke: #808080; stroke-width: 0.5"/>
     </g>
     <g id="line2d_28">
      <g>
       <use xlink:href="#m57cd049555" x="47.54" y="365.09029" style="stroke: #000000; stroke-width: 0.8"/>
      </g>
     </g>
     <g id="text_15">
      <!-- 16 -->
      <g transform="translate(27.815 368.889509) scale(0.1 -0.1)">
       <use xlink:href="#DejaVuSans-31"/>
       <use xlink:href="#DejaVuSans-36" x="63.623047"/>
      </g>
     </g>
    </g>
    <g id="ytick_7">
     <g id="line2d_29">
      <path d="M 47.54 332.143192 
L 1139.857699 332.143192 
" clip-path="url(#pa91be49e44)" style="fill: none; stroke-dasharray: 1.85,0.8; stroke-dashoffset: 0; stroke: #808080; stroke-width: 0.5"/>
     </g>
     <g id="line2d_30">
      <g>
       <use xlink:href="#m57cd049555" x="47.54" y="332.143192" style="stroke: #000000; stroke-width: 0.8"/>
      </g>
     </g>
     <g id="text_16">
      <!-- 18 -->
      <g transform="translate(27.815 335.942411) scale(0.1 -0.1)">
       <use xlink:href="#DejaVuSans-31"/>
       <use xlink:href="#DejaVuSans-38" x="63.623047"/>
      </g>
     </g>
    </g>
    <g id="text_17">
     <!-- $x_2$ -->
     <g transform="translate(21.319375 429.877234) rotate(-90) scale(0.12 -0.12)">
      <use xlink:href="#DejaVuSans-Oblique-78" transform="translate(0 0.3125)"/>
      <use xlink:href="#DejaVuSans-32" transform="translate(59.179688 -16.09375) scale(0.7)"/>
     </g>
    </g>
   </g>
   <g id="line2d_31">
    <path d="M -1 473.829261 
L 1153 211.795874 
L 1153 211.795874 
" clip-path="url(#pa91be49e44)" style="fill: none; stroke-dasharray: 7.4,3.2; stroke-dashoffset: 0; stroke: #ff00ff; stroke-width: 2"/>
   </g>
   <g id="line2d_32">
    <path d="M -1 412.777186 
L 1153 511.931662 
L 1153 511.931662 
" clip-path="url(#pa91be49e44)" style="fill: none; stroke-dasharray: 12.8,3.2,2,3.2; stroke-dashoffset: 0; stroke: #a52a2a; stroke-width: 2"/>
   </g>
   <g id="line2d_33">
    <path d="M -1 162.832271 
L 1153 552.066332 
L 1153 552.066332 
" clip-path="url(#pa91be49e44)" style="fill: none; stroke-dasharray: 2,3.3; stroke-dashoffset: 0; stroke: #00ffff; stroke-width: 2"/>
   </g>
   <g id="patch_4">
    <path d="M 47.54 531.16 
L 47.54 315.754468 
" style="fill: none; stroke: #000000; stroke-width: 0.8; stroke-linejoin: miter; stroke-linecap: square"/>
   </g>
   <g id="patch_5">
    <path d="M 1139.857699 531.16 
L 1139.857699 315.754468 
" style="fill: none; stroke: #000000; stroke-width: 0.8; stroke-linejoin: miter; stroke-linecap: square"/>
   </g>
   <g id="patch_6">
    <path d="M 47.54 531.16 
L 1139.857699 531.16 
" style="fill: none; stroke: #000000; stroke-width: 0.8; stroke-linejoin: miter; stroke-linecap: square"/>
   </g>
   <g id="patch_7">
    <path d="M 47.54 315.754468 
L 1139.857699 315.754468 
" style="fill: none; stroke: #000000; stroke-width: 0.8; stroke-linejoin: miter; stroke-linecap: square"/>
   </g>
   <g id="text_18">
    <!-- $-10.3x_1 + 10.2x_2 = 70$ -->
    <g style="fill: #ff00ff" transform="translate(43.640304 492.462006) rotate(-45.279489) scale(0.1 -0.1)">
     <defs>
      <path id="DejaVuSans-2212" d="M 678 2272 
L 4684 2272 
L 4684 1741 
L 678 1741 
L 678 2272 
z
" transform="scale(0.015625)"/>
      <path id="DejaVuSans-2e" d="M 684 794 
L 1344 794 
L 1344 0 
L 684 0 
L 684 794 
z
" transform="scale(0.015625)"/>
      <path id="DejaVuSans-33" d="M 2597 2516 
Q 3050 2419 3304 2112 
Q 3559 1806 3559 1356 
Q 3559 666 3084 287 
Q 2609 -91 1734 -91 
Q 1441 -91 1130 -33 
Q 819 25 488 141 
L 488 750 
Q 750 597 1062 519 
Q 1375 441 1716 441 
Q 2309 441 2620 675 
Q 2931 909 2931 1356 
Q 2931 1769 2642 2001 
Q 2353 2234 1838 2234 
L 1294 2234 
L 1294 2753 
L 1863 2753 
Q 2328 2753 2575 2939 
Q 2822 3125 2822 3475 
Q 2822 3834 2567 4026 
Q 2313 4219 1838 4219 
Q 1578 4219 1281 4162 
Q 984 4106 628 3988 
L 628 4550 
Q 988 4650 1302 4700 
Q 1616 4750 1894 4750 
Q 2613 4750 3031 4423 
Q 3450 4097 3450 3541 
Q 3450 3153 3228 2886 
Q 3006 2619 2597 2516 
z
" transform="scale(0.015625)"/>
      <path id="DejaVuSans-2b" d="M 2944 4013 
L 2944 2272 
L 4684 2272 
L 4684 1741 
L 2944 1741 
L 2944 0 
L 2419 0 
L 2419 1741 
L 678 1741 
L 678 2272 
L 2419 2272 
L 2419 4013 
L 2944 4013 
z
" transform="scale(0.015625)"/>
      <path id="DejaVuSans-3d" d="M 678 2906 
L 4684 2906 
L 4684 2381 
L 678 2381 
L 678 2906 
z
M 678 1631 
L 4684 1631 
L 4684 1100 
L 678 1100 
L 678 1631 
z
" transform="scale(0.015625)"/>
      <path id="DejaVuSans-37" d="M 525 4666 
L 3525 4666 
L 3525 4397 
L 1831 0 
L 1172 0 
L 2766 4134 
L 525 4134 
L 525 4666 
z
" transform="scale(0.015625)"/>
     </defs>
     <use xlink:href="#DejaVuSans-2212" transform="translate(0 0.78125)"/>
     <use xlink:href="#DejaVuSans-31" transform="translate(83.789062 0.78125)"/>
     <use xlink:href="#DejaVuSans-30" transform="translate(147.412109 0.78125)"/>
     <use xlink:href="#DejaVuSans-2e" transform="translate(211.035156 0.78125)"/>
     <use xlink:href="#DejaVuSans-33" transform="translate(242.822266 0.78125)"/>
     <use xlink:href="#DejaVuSans-Oblique-78" transform="translate(306.445312 0.78125)"/>
     <use xlink:href="#DejaVuSans-31" transform="translate(365.625 -15.625) scale(0.7)"/>
     <use xlink:href="#DejaVuSans-2b" transform="translate(432.37793 0.78125)"/>
     <use xlink:href="#DejaVuSans-31" transform="translate(535.649414 0.78125)"/>
     <use xlink:href="#DejaVuSans-30" transform="translate(599.272461 0.78125)"/>
     <use xlink:href="#DejaVuSans-2e" transform="translate(662.895508 0.78125)"/>
     <use xlink:href="#DejaVuSans-32" transform="translate(689.182617 0.78125)"/>
     <use xlink:href="#DejaVuSans-Oblique-78" transform="translate(752.805664 0.78125)"/>
     <use xlink:href="#DejaVuSans-32" transform="translate(811.985352 -15.625) scale(0.7)"/>
     <use xlink:href="#DejaVuSans-3d" transform="translate(878.738281 0.78125)"/>
     <use xlink:href="#DejaVuSans-37" transform="translate(982.009766 0.78125)"/>
     <use xlink:href="#DejaVuSans-30" transform="translate(1045.632812 0.78125)"/>
    </g>
   </g>
   <g id="text_19">
    <!-- $4.7x_1 + 12.3x_2 = 173$ -->
    <g style="fill: #a52a2a" transform="translate(37.085608 399.877095) rotate(-339.087452) scale(0.1 -0.1)">
     <use xlink:href="#DejaVuSans-34" transform="translate(0 0.78125)"/>
     <use xlink:href="#DejaVuSans-2e" transform="translate(63.623047 0.78125)"/>
     <use xlink:href="#DejaVuSans-37" transform="translate(87.660156 0.78125)"/>
     <use xlink:href="#DejaVuSans-Oblique-78" transform="translate(151.283203 0.78125)"/>
     <use xlink:href="#DejaVuSans-31" transform="translate(210.462891 -15.625) scale(0.7)"/>
     <use xlink:href="#DejaVuSans-2b" transform="translate(277.21582 0.78125)"/>
     <use xlink:href="#DejaVuSans-31" transform="translate(380.487305 0.78125)"/>
     <use xlink:href="#DejaVuSans-32" transform="translate(444.110352 0.78125)"/>
     <use xlink:href="#DejaVuSans-2e" transform="translate(507.733398 0.78125)"/>
     <use xlink:href="#DejaVuSans-33" transform="translate(539.520508 0.78125)"/>
     <use xlink:href="#DejaVuSans-Oblique-78" transform="translate(603.143555 0.78125)"/>
     <use xlink:href="#DejaVuSans-32" transform="translate(662.323242 -15.625) scale(0.7)"/>
     <use xlink:href="#DejaVuSans-3d" transform="translate(729.076172 0.78125)"/>
     <use xlink:href="#DejaVuSans-31" transform="translate(832.347656 0.78125)"/>
     <use xlink:href="#DejaVuSans-37" transform="translate(895.970703 0.78125)"/>
     <use xlink:href="#DejaVuSans-33" transform="translate(959.59375 0.78125)"/>
    </g>
   </g>
   <g id="text_20">
    <!-- $13.2x_1 + 8.8x_2 = 282$ -->
    <g style="fill: #00ffff" transform="translate(57.528037 147.846573) rotate(-303.690068) scale(0.1 -0.1)">
     <use xlink:href="#DejaVuSans-31" transform="translate(0 0.78125)"/>
     <use xlink:href="#DejaVuSans-33" transform="translate(63.623047 0.78125)"/>
     <use xlink:href="#DejaVuSans-2e" transform="translate(127.246094 0.78125)"/>
     <use xlink:href="#DejaVuSans-32" transform="translate(153.533203 0.78125)"/>
     <use xlink:href="#DejaVuSans-Oblique-78" transform="translate(217.15625 0.78125)"/>
     <use xlink:href="#DejaVuSans-31" transform="translate(276.335938 -15.625) scale(0.7)"/>
     <use xlink:href="#DejaVuSans-2b" transform="translate(343.088867 0.78125)"/>
     <use xlink:href="#DejaVuSans-38" transform="translate(446.360352 0.78125)"/>
     <use xlink:href="#DejaVuSans-2e" transform="translate(509.983398 0.78125)"/>
     <use xlink:href="#DejaVuSans-38" transform="translate(539.145508 0.78125)"/>
     <use xlink:href="#DejaVuSans-Oblique-78" transform="translate(602.768555 0.78125)"/>
     <use xlink:href="#DejaVuSans-32" transform="translate(661.948242 -15.625) scale(0.7)"/>
     <use xlink:href="#DejaVuSans-3d" transform="translate(728.701172 0.78125)"/>
     <use xlink:href="#DejaVuSans-32" transform="translate(831.972656 0.78125)"/>
     <use xlink:href="#DejaVuSans-38" transform="translate(895.595703 0.78125)"/>
     <use xlink:href="#DejaVuSans-32" transform="translate(959.21875 0.78125)"/>
    </g>
   </g>
   <g id="text_21">
    <!-- P12 -->
    <g transform="translate(208.714407 426.242692) scale(0.1 -0.1)">
     <defs>
      <path id="DejaVuSans-50" d="M 1259 4147 
L 1259 2394 
L 2053 2394 
Q 2494 2394 2734 2622 
Q 2975 2850 2975 3272 
Q 2975 3691 2734 3919 
Q 2494 4147 2053 4147 
L 1259 4147 
z
M 628 4666 
L 2053 4666 
Q 2838 4666 3239 4311 
Q 3641 3956 3641 3272 
Q 3641 2581 3239 2228 
Q 2838 1875 2053 1875 
L 1259 1875 
L 1259 0 
L 628 0 
L 628 4666 
z
" transform="scale(0.015625)"/>
     </defs>
     <use xlink:href="#DejaVuSans-50"/>
     <use xlink:href="#DejaVuSans-31" x="60.302734"/>
     <use xlink:href="#DejaVuSans-32" x="123.925781"/>
    </g>
   </g>
   <g id="text_22">
    <!-- P13 -->
    <g transform="translate(564.716959 345.406856) scale(0.1 -0.1)">
     <use xlink:href="#DejaVuSans-50"/>
     <use xlink:href="#DejaVuSans-31" x="60.302734"/>
     <use xlink:href="#DejaVuSans-33" x="123.925781"/>
    </g>
   </g>
   <g id="text_23">
    <!-- P23 -->
    <g transform="translate(1007.987729 494.918193) scale(0.1 -0.1)">
     <use xlink:href="#DejaVuSans-50"/>
     <use xlink:href="#DejaVuSans-32" x="60.302734"/>
     <use xlink:href="#DejaVuSans-33" x="123.925781"/>
    </g>
   </g>
   <g id="text_24">
    <!-- Графіки трьох прямих та їх точки перетину -->
    <g transform="translate(431.655412 309.754468) scale(0.14 -0.14)">
     <defs>
      <path id="DejaVuSans-413" d="M 628 0 
L 628 4666 
L 3531 4666 
L 3531 4134 
L 1259 4134 
L 1259 0 
L 628 0 
z
" transform="scale(0.015625)"/>
      <path id="DejaVuSans-440" d="M 1159 525 
L 1159 -1331 
L 581 -1331 
L 581 3500 
L 1159 3500 
L 1159 2969 
Q 1341 3281 1617 3432 
Q 1894 3584 2278 3584 
Q 2916 3584 3314 3078 
Q 3713 2572 3713 1747 
Q 3713 922 3314 415 
Q 2916 -91 2278 -91 
Q 1894 -91 1617 61 
Q 1341 213 1159 525 
z
M 3116 1747 
Q 3116 2381 2855 2742 
Q 2594 3103 2138 3103 
Q 1681 3103 1420 2742 
Q 1159 2381 1159 1747 
Q 1159 1113 1420 752 
Q 1681 391 2138 391 
Q 2594 391 2855 752 
Q 3116 1113 3116 1747 
z
" transform="scale(0.015625)"/>
      <path id="DejaVuSans-430" d="M 2194 1759 
Q 1497 1759 1228 1600 
Q 959 1441 959 1056 
Q 959 750 1161 570 
Q 1363 391 1709 391 
Q 2188 391 2477 730 
Q 2766 1069 2766 1631 
L 2766 1759 
L 2194 1759 
z
M 3341 1997 
L 3341 0 
L 2766 0 
L 2766 531 
Q 2569 213 2275 61 
Q 1981 -91 1556 -91 
Q 1019 -91 701 211 
Q 384 513 384 1019 
Q 384 1609 779 1909 
Q 1175 2209 1959 2209 
L 2766 2209 
L 2766 2266 
Q 2766 2663 2505 2880 
Q 2244 3097 1772 3097 
Q 1472 3097 1187 3025 
Q 903 2953 641 2809 
L 641 3341 
Q 956 3463 1253 3523 
Q 1550 3584 1831 3584 
Q 2591 3584 2966 3190 
Q 3341 2797 3341 1997 
z
" transform="scale(0.015625)"/>
      <path id="DejaVuSans-444" d="M 947 1747 
Q 947 1013 1173 702 
Q 1400 391 1784 391 
Q 2091 391 2447 916 
L 2447 2578 
Q 2091 3103 1784 3103 
Q 1400 3103 1173 2792 
Q 947 2481 947 1747 
z
M 2447 -1331 
L 2447 447 
Q 2269 153 2064 31 
Q 1859 -91 1600 -91 
Q 1078 -91 714 392 
Q 350 875 350 1734 
Q 350 2594 714 3089 
Q 1078 3584 1600 3584 
Q 1859 3584 2064 3465 
Q 2269 3347 2447 3053 
L 2447 4666 
L 3025 4666 
L 3025 3053 
Q 3203 3347 3408 3465 
Q 3613 3584 3872 3584 
Q 4394 3584 4758 3089 
Q 5122 2594 5122 1734 
Q 5122 875 4758 392 
Q 4394 -91 3872 -91 
Q 3613 -91 3408 31 
Q 3203 153 3025 447 
L 3025 -1331 
L 2447 -1331 
z
M 4525 1747 
Q 4525 2481 4298 2792 
Q 4072 3103 3688 3103 
Q 3381 3103 3025 2578 
L 3025 916 
Q 3381 391 3688 391 
Q 4072 391 4298 702 
Q 4525 1013 4525 1747 
z
" transform="scale(0.015625)"/>
      <path id="DejaVuSans-456" d="M 603 3500 
L 1178 3500 
L 1178 0 
L 603 0 
L 603 3500 
z
M 603 4863 
L 1178 4863 
L 1178 4134 
L 603 4134 
L 603 4863 
z
" transform="scale(0.015625)"/>
      <path id="DejaVuSans-43a" d="M 581 3500 
L 1153 3500 
L 1153 1856 
L 2775 3500 
L 3481 3500 
L 2144 2147 
L 3653 0 
L 3009 0 
L 1769 1766 
L 1153 1141 
L 1153 0 
L 581 0 
L 581 3500 
z
" transform="scale(0.015625)"/>
      <path id="DejaVuSans-438" d="M 3578 3500 
L 3578 0 
L 3006 0 
L 3006 2809 
L 1319 0 
L 581 0 
L 581 3500 
L 1153 3500 
L 1153 697 
L 2838 3500 
L 3578 3500 
z
" transform="scale(0.015625)"/>
      <path id="DejaVuSans-20" transform="scale(0.015625)"/>
      <path id="DejaVuSans-442" d="M 188 3500 
L 3541 3500 
L 3541 3041 
L 2147 3041 
L 2147 0 
L 1581 0 
L 1581 3041 
L 188 3041 
L 188 3500 
z
" transform="scale(0.015625)"/>
      <path id="DejaVuSans-44c" d="M 2781 1038 
Q 2781 1319 2576 1466 
Q 2372 1613 1978 1613 
L 1159 1613 
L 1159 459 
L 1978 459 
Q 2372 459 2576 607 
Q 2781 756 2781 1038 
z
M 581 3500 
L 1159 3500 
L 1159 2072 
L 2003 2072 
Q 2672 2072 3033 1817 
Q 3394 1563 3394 1038 
Q 3394 513 3033 256 
Q 2672 0 2003 0 
L 581 0 
L 581 3500 
z
" transform="scale(0.015625)"/>
      <path id="DejaVuSans-43e" d="M 1959 3097 
Q 1497 3097 1228 2736 
Q 959 2375 959 1747 
Q 959 1119 1226 758 
Q 1494 397 1959 397 
Q 2419 397 2687 759 
Q 2956 1122 2956 1747 
Q 2956 2369 2687 2733 
Q 2419 3097 1959 3097 
z
M 1959 3584 
Q 2709 3584 3137 3096 
Q 3566 2609 3566 1747 
Q 3566 888 3137 398 
Q 2709 -91 1959 -91 
Q 1206 -91 779 398 
Q 353 888 353 1747 
Q 353 2609 779 3096 
Q 1206 3584 1959 3584 
z
" transform="scale(0.015625)"/>
      <path id="DejaVuSans-445" d="M 3513 3500 
L 2247 1797 
L 3578 0 
L 2900 0 
L 1881 1375 
L 863 0 
L 184 0 
L 1544 1831 
L 300 3500 
L 978 3500 
L 1906 2253 
L 2834 3500 
L 3513 3500 
z
" transform="scale(0.015625)"/>
      <path id="DejaVuSans-43f" d="M 3603 3500 
L 3603 0 
L 3025 0 
L 3025 3041 
L 1159 3041 
L 1159 0 
L 581 0 
L 581 3500 
L 3603 3500 
z
" transform="scale(0.015625)"/>
      <path id="DejaVuSans-44f" d="M 1181 2491 
Q 1181 2231 1381 2084 
Q 1581 1938 1953 1938 
L 2728 1938 
L 2728 3041 
L 1953 3041 
Q 1581 3041 1381 2897 
Q 1181 2753 1181 2491 
z
M 363 0 
L 1431 1534 
Q 1069 1616 828 1830 
Q 588 2044 588 2491 
Q 588 2997 923 3248 
Q 1259 3500 1938 3500 
L 3306 3500 
L 3306 0 
L 2728 0 
L 2728 1478 
L 2013 1478 
L 981 0 
L 363 0 
z
" transform="scale(0.015625)"/>
      <path id="DejaVuSans-43c" d="M 581 3500 
L 1422 3500 
L 2416 1156 
L 3413 3500 
L 4247 3500 
L 4247 0 
L 3669 0 
L 3669 2950 
L 2703 672 
L 2128 672 
L 1159 2950 
L 1159 0 
L 581 0 
L 581 3500 
z
" transform="scale(0.015625)"/>
      <path id="DejaVuSans-457" d="M 603 3500 
L 1178 3500 
L 1178 0 
L 603 0 
L 603 3500 
z
M 891 3584 
L 891 3584 
z
M 1182 4850 
L 1816 4850 
L 1816 4219 
L 1182 4219 
L 1182 4850 
z
M -40 4850 
L 594 4850 
L 594 4219 
L -40 4219 
L -40 4850 
z
" transform="scale(0.015625)"/>
      <path id="DejaVuSans-447" d="M 2625 0 
L 2625 1472 
L 1553 1472 
Q 1075 1472 756 1769 
Q 469 2038 469 2613 
L 469 3500 
L 1044 3500 
L 1044 2666 
Q 1044 2300 1206 2116 
Q 1372 1931 1697 1931 
L 2625 1931 
L 2625 3500 
L 3200 3500 
L 3200 0 
L 2625 0 
z
" transform="scale(0.015625)"/>
      <path id="DejaVuSans-435" d="M 3597 1894 
L 3597 1613 
L 953 1613 
Q 991 1019 1311 708 
Q 1631 397 2203 397 
Q 2534 397 2845 478 
Q 3156 559 3463 722 
L 3463 178 
Q 3153 47 2828 -22 
Q 2503 -91 2169 -91 
Q 1331 -91 842 396 
Q 353 884 353 1716 
Q 353 2575 817 3079 
Q 1281 3584 2069 3584 
Q 2775 3584 3186 3129 
Q 3597 2675 3597 1894 
z
M 3022 2063 
Q 3016 2534 2758 2815 
Q 2500 3097 2075 3097 
Q 1594 3097 1305 2825 
Q 1016 2553 972 2059 
L 3022 2063 
z
" transform="scale(0.015625)"/>
      <path id="DejaVuSans-43d" d="M 581 3500 
L 1159 3500 
L 1159 2072 
L 3025 2072 
L 3025 3500 
L 3603 3500 
L 3603 0 
L 3025 0 
L 3025 1613 
L 1159 1613 
L 1159 0 
L 581 0 
L 581 3500 
z
" transform="scale(0.015625)"/>
      <path id="DejaVuSans-443" d="M 2059 -325 
Q 1816 -950 1584 -1140 
Q 1353 -1331 966 -1331 
L 506 -1331 
L 506 -850 
L 844 -850 
Q 1081 -850 1212 -737 
Q 1344 -625 1503 -206 
L 1606 56 
L 191 3500 
L 800 3500 
L 1894 763 
L 2988 3500 
L 3597 3500 
L 2059 -325 
z
" transform="scale(0.015625)"/>
     </defs>
     <use xlink:href="#DejaVuSans-413"/>
     <use xlink:href="#DejaVuSans-440" x="60.986328"/>
     <use xlink:href="#DejaVuSans-430" x="124.462891"/>
     <use xlink:href="#DejaVuSans-444" x="185.742188"/>
     <use xlink:href="#DejaVuSans-456" x="271.240234"/>
     <use xlink:href="#DejaVuSans-43a" x="299.023438"/>
     <use xlink:href="#DejaVuSans-438" x="359.423828"/>
     <use xlink:href="#DejaVuSans-20" x="424.414062"/>
     <use xlink:href="#DejaVuSans-442" x="456.201172"/>
     <use xlink:href="#DejaVuSans-440" x="514.453125"/>
     <use xlink:href="#DejaVuSans-44c" x="577.929688"/>
     <use xlink:href="#DejaVuSans-43e" x="636.865234"/>
     <use xlink:href="#DejaVuSans-445" x="698.046875"/>
     <use xlink:href="#DejaVuSans-20" x="757.226562"/>
     <use xlink:href="#DejaVuSans-43f" x="789.013672"/>
     <use xlink:href="#DejaVuSans-440" x="854.394531"/>
     <use xlink:href="#DejaVuSans-44f" x="917.871094"/>
     <use xlink:href="#DejaVuSans-43c" x="978.027344"/>
     <use xlink:href="#DejaVuSans-438" x="1053.466797"/>
     <use xlink:href="#DejaVuSans-445" x="1118.457031"/>
     <use xlink:href="#DejaVuSans-20" x="1177.636719"/>
     <use xlink:href="#DejaVuSans-442" x="1209.423828"/>
     <use xlink:href="#DejaVuSans-430" x="1267.675781"/>
     <use xlink:href="#DejaVuSans-20" x="1328.955078"/>
     <use xlink:href="#DejaVuSans-457" x="1360.742188"/>
     <use xlink:href="#DejaVuSans-445" x="1388.525391"/>
     <use xlink:href="#DejaVuSans-20" x="1447.705078"/>
     <use xlink:href="#DejaVuSans-442" x="1479.492188"/>
     <use xlink:href="#DejaVuSans-43e" x="1537.744141"/>
     <use xlink:href="#DejaVuSans-447" x="1598.925781"/>
     <use xlink:href="#DejaVuSans-43a" x="1658.007812"/>
     <use xlink:href="#DejaVuSans-438" x="1718.408203"/>
     <use xlink:href="#DejaVuSans-20" x="1783.398438"/>
     <use xlink:href="#DejaVuSans-43f" x="1815.185547"/>
     <use xlink:href="#DejaVuSans-435" x="1880.566406"/>
     <use xlink:href="#DejaVuSans-440" x="1942.089844"/>
     <use xlink:href="#DejaVuSans-435" x="2005.566406"/>
     <use xlink:href="#DejaVuSans-442" x="2067.089844"/>
     <use xlink:href="#DejaVuSans-438" x="2125.341797"/>
     <use xlink:href="#DejaVuSans-43d" x="2190.332031"/>
     <use xlink:href="#DejaVuSans-443" x="2255.712891"/>
    </g>
   </g>
   <g id="legend_1">
    <g id="patch_8">
     <path d="M 989.857699 367.788843 
L 1132.857699 367.788843 
Q 1134.857699 367.788843 1134.857699 365.788843 
L 1134.857699 322.754468 
Q 1134.857699 320.754468 1132.857699 320.754468 
L 989.857699 320.754468 
Q 987.857699 320.754468 987.857699 322.754468 
L 987.857699 365.788843 
Q 987.857699 367.788843 989.857699 367.788843 
z
" style="fill: #ffffff; opacity: 0.8; stroke: #cccccc; stroke-linejoin: miter"/>
    </g>
    <g id="line2d_34">
     <path d="M 991.857699 328.852906 
L 1001.857699 328.852906 
L 1011.857699 328.852906 
" style="fill: none; stroke-dasharray: 7.4,3.2; stroke-dashoffset: 0; stroke: #ff00ff; stroke-width: 2"/>
    </g>
    <g id="text_25">
     <!-- $-10.3x_1 + 10.2x_2 = 70$ -->
     <g transform="translate(1019.857699 332.352906) scale(0.1 -0.1)">
      <use xlink:href="#DejaVuSans-2212" transform="translate(0 0.78125)"/>
      <use xlink:href="#DejaVuSans-31" transform="translate(83.789062 0.78125)"/>
      <use xlink:href="#DejaVuSans-30" transform="translate(147.412109 0.78125)"/>
      <use xlink:href="#DejaVuSans-2e" transform="translate(211.035156 0.78125)"/>
      <use xlink:href="#DejaVuSans-33" transform="translate(242.822266 0.78125)"/>
      <use xlink:href="#DejaVuSans-Oblique-78" transform="translate(306.445312 0.78125)"/>
      <use xlink:href="#DejaVuSans-31" transform="translate(365.625 -15.625) scale(0.7)"/>
      <use xlink:href="#DejaVuSans-2b" transform="translate(432.37793 0.78125)"/>
      <use xlink:href="#DejaVuSans-31" transform="translate(535.649414 0.78125)"/>
      <use xlink:href="#DejaVuSans-30" transform="translate(599.272461 0.78125)"/>
      <use xlink:href="#DejaVuSans-2e" transform="translate(662.895508 0.78125)"/>
      <use xlink:href="#DejaVuSans-32" transform="translate(689.182617 0.78125)"/>
      <use xlink:href="#DejaVuSans-Oblique-78" transform="translate(752.805664 0.78125)"/>
      <use xlink:href="#DejaVuSans-32" transform="translate(811.985352 -15.625) scale(0.7)"/>
      <use xlink:href="#DejaVuSans-3d" transform="translate(878.738281 0.78125)"/>
      <use xlink:href="#DejaVuSans-37" transform="translate(982.009766 0.78125)"/>
      <use xlink:href="#DejaVuSans-30" transform="translate(1045.632812 0.78125)"/>
     </g>
    </g>
    <g id="line2d_35">
     <path d="M 991.857699 343.531031 
L 1001.857699 343.531031 
L 1011.857699 343.531031 
" style="fill: none; stroke-dasharray: 12.8,3.2,2,3.2; stroke-dashoffset: 0; stroke: #a52a2a; stroke-width: 2"/>
    </g>
    <g id="text_26">
     <!-- $4.7x_1 + 12.3x_2 = 173$ -->
     <g transform="translate(1019.857699 347.031031) scale(0.1 -0.1)">
      <use xlink:href="#DejaVuSans-34" transform="translate(0 0.78125)"/>
      <use xlink:href="#DejaVuSans-2e" transform="translate(63.623047 0.78125)"/>
      <use xlink:href="#DejaVuSans-37" transform="translate(87.660156 0.78125)"/>
      <use xlink:href="#DejaVuSans-Oblique-78" transform="translate(151.283203 0.78125)"/>
      <use xlink:href="#DejaVuSans-31" transform="translate(210.462891 -15.625) scale(0.7)"/>
      <use xlink:href="#DejaVuSans-2b" transform="translate(277.21582 0.78125)"/>
      <use xlink:href="#DejaVuSans-31" transform="translate(380.487305 0.78125)"/>
      <use xlink:href="#DejaVuSans-32" transform="translate(444.110352 0.78125)"/>
      <use xlink:href="#DejaVuSans-2e" transform="translate(507.733398 0.78125)"/>
      <use xlink:href="#DejaVuSans-33" transform="translate(539.520508 0.78125)"/>
      <use xlink:href="#DejaVuSans-Oblique-78" transform="translate(603.143555 0.78125)"/>
      <use xlink:href="#DejaVuSans-32" transform="translate(662.323242 -15.625) scale(0.7)"/>
      <use xlink:href="#DejaVuSans-3d" transform="translate(729.076172 0.78125)"/>
      <use xlink:href="#DejaVuSans-31" transform="translate(832.347656 0.78125)"/>
      <use xlink:href="#DejaVuSans-37" transform="translate(895.970703 0.78125)"/>
      <use xlink:href="#DejaVuSans-33" transform="translate(959.59375 0.78125)"/>
     </g>
    </g>
    <g id="line2d_36">
     <path d="M 991.857699 358.209156 
L 1001.857699 358.209156 
L 1011.857699 358.209156 
" style="fill: none; stroke-dasharray: 2,3.3; stroke-dashoffset: 0; stroke: #00ffff; stroke-width: 2"/>
    </g>
    <g id="text_27">
     <!-- $13.2x_1 + 8.8x_2 = 282$ -->
     <g transform="translate(1019.857699 361.709156) scale(0.1 -0.1)">
      <use xlink:href="#DejaVuSans-31" transform="translate(0 0.78125)"/>
      <use xlink:href="#DejaVuSans-33" transform="translate(63.623047 0.78125)"/>
      <use xlink:href="#DejaVuSans-2e" transform="translate(127.246094 0.78125)"/>
      <use xlink:href="#DejaVuSans-32" transform="translate(153.533203 0.78125)"/>
      <use xlink:href="#DejaVuSans-Oblique-78" transform="translate(217.15625 0.78125)"/>
      <use xlink:href="#DejaVuSans-31" transform="translate(276.335938 -15.625) scale(0.7)"/>
      <use xlink:href="#DejaVuSans-2b" transform="translate(343.088867 0.78125)"/>
      <use xlink:href="#DejaVuSans-38" transform="translate(446.360352 0.78125)"/>
      <use xlink:href="#DejaVuSans-2e" transform="translate(509.983398 0.78125)"/>
      <use xlink:href="#DejaVuSans-38" transform="translate(539.145508 0.78125)"/>
      <use xlink:href="#DejaVuSans-Oblique-78" transform="translate(602.768555 0.78125)"/>
      <use xlink:href="#DejaVuSans-32" transform="translate(661.948242 -15.625) scale(0.7)"/>
      <use xlink:href="#DejaVuSans-3d" transform="translate(728.701172 0.78125)"/>
      <use xlink:href="#DejaVuSans-32" transform="translate(831.972656 0.78125)"/>
      <use xlink:href="#DejaVuSans-38" transform="translate(895.595703 0.78125)"/>
      <use xlink:href="#DejaVuSans-32" transform="translate(959.21875 0.78125)"/>
     </g>
    </g>
   </g>
  </g>
 </g>
 <defs>
  <clipPath id="pa91be49e44">
   <rect x="47.54" y="315.754468" width="1092.317699" height="215.405532"/>
  </clipPath>
 </defs>
</svg>
